<?xml version="1.0" encoding="utf-8"?>
<!-- Generator: Adobe Illustrator 14.0.0, SVG Export Plug-In . SVG Version: 6.00 Build 43363)  -->
<!DOCTYPE svg PUBLIC "-//W3C//DTD SVG 1.1//EN" "http://www.w3.org/Graphics/SVG/1.1/DTD/svg11.dtd">
<svg version="1.1" id="Layer_1" xmlns="http://www.w3.org/2000/svg" xmlns:xlink="http://www.w3.org/1999/xlink" x="0px" y="0px"
	 width="595.28px" height="841.89px" viewBox="0 0 595.28 841.89" enable-background="new 0 0 595.28 841.89" xml:space="preserve">
<path fill="#B586BC" d="M190.614,304.824h209.648c0,0-23.684-137.282,8.772-221.053s78.709-52.094,91.228-44.737
	c7.462,4.386,3.367,90.722,0,96.491c-3.409,5.841-19.298,67.543-42.982,107.895c-24.759,42.181-27.192,52.632-30.701,61.404
	s-3.509,72.807-3.509,72.807s36.842,24.348,36.842,43.314s-5.263,36.51-25.438,50.545s-32.456,19.299-35.965,20.176
	s-16.666,28.069-25.438,38.596s-38.597,28.07-50,28.07s4.386-7.018-25.43-11.403c-7.94-1.168-21.938,9.648-22.815,11.403
	s-26.316,6.14-50.877-14.035s-48.245-45.614-45.614-60.526s-20.562,9.066-44.737-27.192c-20.176-30.262,24.561-65.79,17.543-65.79
	s-7.017-97.03-7.017-97.03s-51.755-96.83-54.386-124.022s-21.341-51.357-4.386-115.79C98.509,3.946,145,39.912,145,39.034
	s30.702,38.596,36.842,103.509c2.676,28.284,7.017,63.158,7.017,63.158L190.614,304.824z"/>
<path fill="#CDAAD0" d="M169.562,282.894c0,0,3.222-199.123-45.614-214.035c-44.018-13.441-16.667,93.859-14.912,94.737
	s41.228,119.298,50.877,119.298H169.562z"/>
<path fill="#CDAAD0" d="M409.912,185.525c0,0,2.966-96.491,50.877-117.832c7.051-3.141,18.422,16.078,18.422,16.078
	s5.263,71.053-26.316,135.965s-31.579,64.912-31.579,64.912s-3.508,0.877-6.14-1.754S409.912,185.525,409.912,185.525z"/>
<ellipse fill="#97619E" cx="186.228" cy="435.164" rx="50.516" ry="45.613"/>
<ellipse fill="#97619E" cx="298.542" cy="570.929" rx="19.298" ry="13.597"/>
<ellipse fill="#FFFFFF" cx="189.433" cy="434.807" rx="32.514" ry="32.611"/>
<ellipse fill="#97619E" cx="389.86" cy="432.142" rx="63.158" ry="53.947"/>
<ellipse fill="#FFFFFF" cx="390.449" cy="436.163" rx="43.271" ry="43.785"/>
<path fill="#B586BC" d="M375.702,541.666l112.28,7.895v-36.843c0,0,2.631-17.544-21.053,0s-13.158,14.522-13.158,14.522
	l-32.456-22.32c0,0-12.889-11.971-19.298,0C391.203,525.117,375.702,541.666,375.702,541.666z"/>
<path fill="#B586BC" d="M259.912,571.929c-57.037-8.199-90.308-72.329-90.307-72.329c0,0-16.985,123.941-14.079,152.594
	s6.14,60.525,6.14,60.525s1.754,9.65,12.281,11.404s10.888-148.246,10.888-148.246L195,576.754c0,0,0.2,152.163,21.053,153.509
	s27.193,1.755,27.193,1.755s100.877,93.859,112.281,90.351s5.349-54.398-45.614-101.754l17.544,1.754
	c10.525,12.826,105.351,131.58,104.43,87.72s-8.815-57.895-8.815-57.895l-61.403-37.72c0,0,36.843-68.422,14.035-172.808
	c0,0-35.088,30.263-48.246,30.263c0,0-27.005,48.441-56.831,0.634C270.625,572.562,271.732,573.628,259.912,571.929z"/>
<path fill="#CDAAD0" d="M344.123,631.141c-27.395-29.588-128.07-64.191-128.07,74.561c0,0,51.486,28.123,139.474,0
	C367.186,701.975,360.366,648.685,344.123,631.141z"/>
<ellipse fill="#070909" cx="388.86" cy="437.938" rx="13.158" ry="11.622"/>
<ellipse fill="#070909" cx="186.228" cy="437.938" rx="12.281" ry="11.622"/>
</svg>
